<?xml version="1.0" standalone="no"?>
<!DOCTYPE svg PUBLIC "-//W3C//DTD SVG 20010904//EN"
 "http://www.w3.org/TR/2001/REC-SVG-20010904/DTD/svg10.dtd">
<svg version="1.0" xmlns="http://www.w3.org/2000/svg"
 width="96.000000pt" height="96.000000pt" viewBox="0 0 96.000000 96.000000"
 preserveAspectRatio="xMidYMid meet">
<metadata>
Created by potrace 1.14, written by Peter Selinger 2001-2017
</metadata>
<g transform="translate(0.000000,96.000000) scale(0.100000,-0.100000)"
fill="#000000" stroke="none">
<path d="M573 945 c-26 -18 -34 -58 -17 -90 13 -25 12 -26 -134 -111 -274
-161 -312 -185 -313 -197 -1 -7 -2 -29 -4 -49 -2 -20 -8 -61 -14 -90 -6 -29
-13 -62 -15 -74 -11 -55 -41 -165 -58 -212 -11 -29 -17 -56 -14 -60 4 -3 61
48 127 113 98 99 119 124 114 142 -9 36 19 88 54 102 92 39 172 -70 107 -146
-20 -23 -32 -28 -70 -28 -46 0 -48 -2 -163 -117 -64 -65 -114 -120 -111 -124
4 -3 33 3 65 15 117 41 300 80 402 86 19 1 36 6 38 11 2 5 62 109 134 231
l130 221 25 -13 c55 -28 120 24 99 79 -9 24 -256 281 -300 312 -25 18 -55 18
-82 -1z"/>
</g>
</svg>
